<svg version="1.2" xmlns="http://www.w3.org/2000/svg" viewBox="0 0 200 35" width="200" height="35"><style></style><path  d="m5.4 10c1.2-5.5 6.7-10 12.2-10h26.2l-1.6 7.2h-26.1c-1.6 0-3.1 1.2-3.4 2.8l-5.3 25h-7.3z"/><path  d="m41.3 25l5.4-25h7.3l-5.4 25c-0.3 1.6 0.6 2.8 2.2 2.8h35.4c1.5 0 3-1.2 3.3-2.8l5.5-25h7.2l-5.4 25c-1.1 5.5-6.6 10-12.1 10h-35.4c-5.6 0-9.1-4.5-8-10z"/><path  d="m151.4 10c0.3-1.6-0.6-2.8-2.2-2.8h-38.1l-6 27.8h-7.3l7.5-35h45.5c5.5 0 9.1 4.5 7.9 10l-5.3 25h-7.3z"/><path  d="m161.6 10c1.2-5.5 6.6-10 12.2-10h26.1l-1.5 7.2h-26.2c-1.5 0-3 1.2-3.3 2.8l-5.4 25h-7.3z"/></svg>